<mxfile host="app.diagrams.net" modified="2023-06-11T10:05:06.936Z" agent="Mozilla/5.0 (Windows NT 10.0; Win64; x64) AppleWebKit/537.36 (KHTML, like Gecko) Chrome/114.0.0.0 Safari/537.36 Edg/114.0.1823.43" etag="X2Juj-0tSRxtXNu0E98V" version="21.3.8" type="device">
  <diagram name="Page-1" id="o9MLXnVj2qu1mcH5aMkQ">
    <mxGraphModel dx="1912" dy="2108" grid="1" gridSize="10" guides="1" tooltips="1" connect="1" arrows="1" fold="1" page="1" pageScale="1" pageWidth="850" pageHeight="1100" math="0" shadow="0">
      <root>
        <mxCell id="0" />
        <mxCell id="1" parent="0" />
        <mxCell id="RzNzTvQ7nOydyNo7-ubj-30" value="" style="rounded=0;whiteSpace=wrap;html=1;fillColor=#000000;strokeColor=default;" vertex="1" parent="1">
          <mxGeometry y="-140" width="800" height="960" as="geometry" />
        </mxCell>
        <mxCell id="RzNzTvQ7nOydyNo7-ubj-32" value="Flow" parent="0" />
        <mxCell id="RzNzTvQ7nOydyNo7-ubj-1" value="Core" style="rounded=0;whiteSpace=wrap;html=1;strokeColor=#ffffff;" vertex="1" parent="RzNzTvQ7nOydyNo7-ubj-32">
          <mxGeometry x="400" y="80" width="120" height="40" as="geometry" />
        </mxCell>
        <mxCell id="RzNzTvQ7nOydyNo7-ubj-17" style="edgeStyle=orthogonalEdgeStyle;rounded=0;orthogonalLoop=1;jettySize=auto;html=1;exitX=0.5;exitY=0;exitDx=0;exitDy=0;entryX=0.5;entryY=1;entryDx=0;entryDy=0;strokeColor=#ffffff;" edge="1" parent="RzNzTvQ7nOydyNo7-ubj-32" source="RzNzTvQ7nOydyNo7-ubj-3" target="RzNzTvQ7nOydyNo7-ubj-1">
          <mxGeometry relative="1" as="geometry" />
        </mxCell>
        <mxCell id="RzNzTvQ7nOydyNo7-ubj-3" value="Persistence" style="rounded=0;whiteSpace=wrap;html=1;strokeColor=#ffffff;" vertex="1" parent="RzNzTvQ7nOydyNo7-ubj-32">
          <mxGeometry x="400" y="160" width="120" height="40" as="geometry" />
        </mxCell>
        <mxCell id="RzNzTvQ7nOydyNo7-ubj-4" value="Telemetry" style="rounded=0;whiteSpace=wrap;html=1;strokeColor=#ffffff;" vertex="1" parent="RzNzTvQ7nOydyNo7-ubj-32">
          <mxGeometry x="160" y="320" width="120" height="40" as="geometry" />
        </mxCell>
        <mxCell id="RzNzTvQ7nOydyNo7-ubj-5" value="Management" style="rounded=0;whiteSpace=wrap;html=1;strokeColor=#ffffff;" vertex="1" parent="RzNzTvQ7nOydyNo7-ubj-32">
          <mxGeometry x="280" y="240" width="120" height="40" as="geometry" />
        </mxCell>
        <mxCell id="RzNzTvQ7nOydyNo7-ubj-6" value="Logging" style="rounded=0;whiteSpace=wrap;html=1;strokeColor=#ffffff;" vertex="1" parent="RzNzTvQ7nOydyNo7-ubj-32">
          <mxGeometry x="400" y="320" width="120" height="40" as="geometry" />
        </mxCell>
        <mxCell id="RzNzTvQ7nOydyNo7-ubj-7" value="Configuration" style="rounded=0;whiteSpace=wrap;html=1;strokeColor=#ffffff;" vertex="1" parent="RzNzTvQ7nOydyNo7-ubj-32">
          <mxGeometry x="520" y="240" width="120" height="40" as="geometry" />
        </mxCell>
        <mxCell id="RzNzTvQ7nOydyNo7-ubj-8" value="Auth" style="rounded=0;whiteSpace=wrap;html=1;strokeColor=#ffffff;" vertex="1" parent="RzNzTvQ7nOydyNo7-ubj-32">
          <mxGeometry x="640" y="320" width="120" height="40" as="geometry" />
        </mxCell>
        <mxCell id="RzNzTvQ7nOydyNo7-ubj-21" style="edgeStyle=orthogonalEdgeStyle;rounded=0;orthogonalLoop=1;jettySize=auto;html=1;exitX=1;exitY=0.5;exitDx=0;exitDy=0;entryX=0.5;entryY=1;entryDx=0;entryDy=0;strokeColor=#ffffff;" edge="1" parent="RzNzTvQ7nOydyNo7-ubj-32" source="RzNzTvQ7nOydyNo7-ubj-9" target="RzNzTvQ7nOydyNo7-ubj-4">
          <mxGeometry relative="1" as="geometry" />
        </mxCell>
        <mxCell id="RzNzTvQ7nOydyNo7-ubj-22" style="edgeStyle=orthogonalEdgeStyle;rounded=0;orthogonalLoop=1;jettySize=auto;html=1;exitX=1;exitY=0.5;exitDx=0;exitDy=0;entryX=0.5;entryY=1;entryDx=0;entryDy=0;strokeColor=#ffffff;" edge="1" parent="RzNzTvQ7nOydyNo7-ubj-32" source="RzNzTvQ7nOydyNo7-ubj-9" target="RzNzTvQ7nOydyNo7-ubj-5">
          <mxGeometry relative="1" as="geometry" />
        </mxCell>
        <mxCell id="RzNzTvQ7nOydyNo7-ubj-24" style="edgeStyle=orthogonalEdgeStyle;rounded=0;orthogonalLoop=1;jettySize=auto;html=1;exitX=1;exitY=0.5;exitDx=0;exitDy=0;entryX=0.5;entryY=1;entryDx=0;entryDy=0;strokeColor=#ffffff;" edge="1" parent="RzNzTvQ7nOydyNo7-ubj-32" source="RzNzTvQ7nOydyNo7-ubj-9" target="RzNzTvQ7nOydyNo7-ubj-6">
          <mxGeometry relative="1" as="geometry" />
        </mxCell>
        <mxCell id="RzNzTvQ7nOydyNo7-ubj-25" style="edgeStyle=orthogonalEdgeStyle;rounded=0;orthogonalLoop=1;jettySize=auto;html=1;exitX=1;exitY=0.5;exitDx=0;exitDy=0;entryX=0.5;entryY=1;entryDx=0;entryDy=0;strokeColor=#ffffff;" edge="1" parent="RzNzTvQ7nOydyNo7-ubj-32" source="RzNzTvQ7nOydyNo7-ubj-9" target="RzNzTvQ7nOydyNo7-ubj-7">
          <mxGeometry relative="1" as="geometry" />
        </mxCell>
        <mxCell id="RzNzTvQ7nOydyNo7-ubj-26" style="edgeStyle=orthogonalEdgeStyle;rounded=0;orthogonalLoop=1;jettySize=auto;html=1;exitX=1;exitY=0.5;exitDx=0;exitDy=0;entryX=0.5;entryY=1;entryDx=0;entryDy=0;strokeColor=#ffffff;" edge="1" parent="RzNzTvQ7nOydyNo7-ubj-32" source="RzNzTvQ7nOydyNo7-ubj-9" target="RzNzTvQ7nOydyNo7-ubj-8">
          <mxGeometry relative="1" as="geometry" />
        </mxCell>
        <mxCell id="RzNzTvQ7nOydyNo7-ubj-27" style="edgeStyle=orthogonalEdgeStyle;rounded=0;orthogonalLoop=1;jettySize=auto;html=1;exitX=0.5;exitY=0;exitDx=0;exitDy=0;entryX=0;entryY=0.5;entryDx=0;entryDy=0;strokeColor=#ffffff;" edge="1" parent="RzNzTvQ7nOydyNo7-ubj-32" source="RzNzTvQ7nOydyNo7-ubj-9" target="RzNzTvQ7nOydyNo7-ubj-3">
          <mxGeometry relative="1" as="geometry" />
        </mxCell>
        <mxCell id="RzNzTvQ7nOydyNo7-ubj-9" value="Framework.Web" style="rounded=0;whiteSpace=wrap;html=1;strokeColor=#ffffff;" vertex="1" parent="RzNzTvQ7nOydyNo7-ubj-32">
          <mxGeometry x="40" y="440" width="120" height="40" as="geometry" />
        </mxCell>
      </root>
    </mxGraphModel>
  </diagram>
</mxfile>
